<?xml version="1.0" encoding="UTF-8" standalone="no"?>
<!-- Created with Inkscape (http://www.inkscape.org/) -->

<svg
   width="32"
   height="32"
   viewBox="0 0 8.4666664 8.4666666"
   version="1.1"
   id="svg1"
   inkscape:version="1.4.2 (f4327f4, 2025-05-13)"
   sodipodi:docname="favicon.svg"
   xmlns:inkscape="http://www.inkscape.org/namespaces/inkscape"
   xmlns:sodipodi="http://sodipodi.sourceforge.net/DTD/sodipodi-0.dtd"
   xmlns="http://www.w3.org/2000/svg"
   xmlns:svg="http://www.w3.org/2000/svg">
  <sodipodi:namedview
     id="namedview1"
     pagecolor="#ffffff"
     bordercolor="#000000"
     borderopacity="0.25"
     inkscape:showpageshadow="2"
     inkscape:pageopacity="0.0"
     inkscape:pagecheckerboard="0"
     inkscape:deskcolor="#d1d1d1"
     inkscape:document-units="px"
     inkscape:zoom="11.01807"
     inkscape:cx="-13.47786"
     inkscape:cy="16.47294"
     inkscape:window-width="1920"
     inkscape:window-height="991"
     inkscape:window-x="-9"
     inkscape:window-y="-9"
     inkscape:window-maximized="1"
     inkscape:current-layer="layer1" />
  <defs
     id="defs1">
    <clipPath
       clipPathUnits="userSpaceOnUse"
       id="clipPath2">
      <path
         d="M 763,0 H 4196 V 7015 H 763 V 0"
         transform="translate(-2.0833333e-5,2.0833333e-4)"
         id="path2" />
    </clipPath>
    <clipPath
       clipPathUnits="userSpaceOnUse"
       id="clipPath127">
      <path
         d="M 763,0 H 4196 V 7015 H 763 V 0"
         transform="translate(-2.0833333e-5,2.0833333e-4)"
         id="path127" />
    </clipPath>
    <clipPath
       clipPathUnits="userSpaceOnUse"
       id="clipPath135">
      <path
         d="M 763,0 H 4196 V 7015 H 763 V 0"
         transform="translate(-2.0833333e-5,2.0833333e-4)"
         id="path135" />
    </clipPath>
    <clipPath
       clipPathUnits="userSpaceOnUse"
       id="clipPath147">
      <path
         d="M 763,0 H 4196 V 7015 H 763 V 0"
         transform="translate(-2.0833333e-5,2.0833333e-4)"
         id="path147" />
    </clipPath>
    <clipPath
       clipPathUnits="userSpaceOnUse"
       id="clipPath149">
      <path
         d="M 763,0 H 4196 V 7015 H 763 V 0"
         transform="translate(-2.0833333e-5,2.0833333e-4)"
         id="path149" />
    </clipPath>
    <clipPath
       clipPathUnits="userSpaceOnUse"
       id="clipPath173">
      <path
         d="M 763,0 H 4196 V 7015 H 763 V 0"
         transform="translate(-2.0833333e-5,2.0833333e-4)"
         id="path173" />
    </clipPath>
    <clipPath
       clipPathUnits="userSpaceOnUse"
       id="clipPath175">
      <path
         d="M 763,0 H 4196 V 7015 H 763 V 0"
         transform="translate(-2.0833333e-5,2.0833333e-4)"
         id="path175" />
    </clipPath>
    <clipPath
       clipPathUnits="userSpaceOnUse"
       id="clipPath145">
      <path
         d="M 763,0 H 4196 V 7015 H 763 V 0"
         transform="translate(-2.0833333e-5,2.0833333e-4)"
         id="path145" />
    </clipPath>
    <clipPath
       clipPathUnits="userSpaceOnUse"
       id="clipPath171">
      <path
         d="M 763,0 H 4196 V 7015 H 763 V 0"
         transform="matrix(0,-0.16,-0.16,0,1122.6667,793.33333)"
         id="path171" />
    </clipPath>
    <clipPath
       clipPathUnits="userSpaceOnUse"
       id="clipPath170">
      <path
         d="M 763,0 H 4196 V 7015 H 763 V 0"
         transform="translate(-2.0833333e-5,2.0833333e-4)"
         id="path170" />
    </clipPath>
  </defs>
  <g
     inkscape:label="Layer 1"
     inkscape:groupmode="layer"
     id="layer1">
    <path
       id="path1"
       d="m 3688,6467 v -245 l -344,245 z"
       style="fill:#1b924a;fill-opacity:1;fill-rule:nonzero;stroke:#136734;stroke-width:1;stroke-linecap:butt;stroke-linejoin:miter;stroke-miterlimit:10;stroke-dasharray:none;stroke-opacity:1"
       transform="matrix(0,-0.00247641,-0.00128277,0,8.836391,10.558827)"
       clip-path="url(#clipPath2)"
       inkscape:export-filename="path1.png"
       inkscape:export-xdpi="14.109262"
       inkscape:export-ydpi="14.109262" />
    <path
       id="path3"
       d="M 0.5407592,1.4258233 H 0.8550364"
       style="fill:none;stroke:#136734;stroke-width:0.00178231;stroke-linecap:round;stroke-linejoin:round;stroke-miterlimit:10;stroke-dasharray:none;stroke-opacity:1" />
    <path
       id="path126"
       d="m 2494,5805 h -523 v 292 z"
       style="fill:#136734;fill-opacity:1;fill-rule:nonzero;stroke:#136734;stroke-width:1;stroke-linecap:round;stroke-linejoin:miter;stroke-miterlimit:10;stroke-dasharray:none;stroke-opacity:1"
       transform="matrix(0,-0.00247641,-0.00128277,0,8.836391,10.558827)"
       clip-path="url(#clipPath127)" />
    <path
       id="path134"
       d="m 1971,5805 v 292 l -344,-292 z m 0,292 -344,-292 v 483 z"
       style="fill:#136734;fill-opacity:1;fill-rule:nonzero;stroke:#136734;stroke-width:1;stroke-linecap:round;stroke-linejoin:miter;stroke-miterlimit:10;stroke-dasharray:none;stroke-opacity:1"
       transform="matrix(0,-0.00247641,-0.00128277,0,8.836391,10.558827)"
       clip-path="url(#clipPath135)" />
    <path
       id="path143"
       d="M 0.5407592,1.4258233 V 2.2777087"
       style="fill:none;stroke:#136734;stroke-width:0.00178231;stroke-linecap:round;stroke-linejoin:round;stroke-miterlimit:10;stroke-dasharray:none;stroke-opacity:1" />
    <path
       id="path144"
       d="M 3688,222 V 4013 L 3344,394 Z m 0,3791 -344,-3619 v 3790 z"
       style="fill:#ff0000;fill-opacity:1;fill-rule:nonzero;stroke:#ff0000;stroke-width:1;stroke-linecap:round;stroke-linejoin:miter;stroke-miterlimit:10;stroke-dasharray:none;stroke-opacity:1"
       transform="matrix(0,-0.00247687,-0.00116234,0,8.6371389,10.560419)"
       clip-path="url(#clipPath145)" />
    <path
       id="path146"
       d="M 2829,2651 V 4013 L 2486,2823 Z m 0,1362 -343,-1190 v 1361 z"
       style="fill:#ff0000;fill-opacity:1;fill-rule:nonzero;stroke:#ff0000;stroke-width:1;stroke-linecap:round;stroke-linejoin:miter;stroke-miterlimit:10;stroke-dasharray:none;stroke-opacity:1"
       transform="matrix(0,-0.00247641,-0.00128277,0,8.7722526,10.558827)"
       clip-path="url(#clipPath147)" />
    <path
       id="path148"
       d="m 3344,1542 v 343 L 1627,1542 Z m 0,343 -1717,-343 v 343 z"
       style="fill:#ff0000;fill-opacity:1;fill-rule:nonzero;stroke:#ff0000;stroke-width:1;stroke-linecap:round;stroke-linejoin:miter;stroke-miterlimit:10;stroke-dasharray:none;stroke-opacity:1"
       transform="matrix(0,-0.00247577,-0.0031006,0,11.469827,10.557247)"
       clip-path="url(#clipPath149)" />
    <path
       id="path157"
       d="M 3.6886608,3.5530602 3.4693083,4.4024692"
       style="fill:none;stroke:#ff0000;stroke-width:0.00178231;stroke-linecap:round;stroke-linejoin:round;stroke-miterlimit:10;stroke-dasharray:none;stroke-opacity:1" />
    <path
       style="fill:#1b924a;fill-opacity:1;stroke:none;stroke-width:0.011912;stroke-opacity:1"
       d="m 1.5817732,4.3022865 0.8964465,2.266083 2.4097435,0.00575 0.2220508,-0.85832 -2.0876736,0.029424 -0.5644162,-1.4148178 z"
       id="path179"
       sodipodi:nodetypes="ccccccc" />
    <path
       style="fill:#1b924a;fill-opacity:1;stroke:none;stroke-width:0.0114904;stroke-opacity:1"
       d="m 1.2936761,1.393638 h 1.1775051 c 0,0 0.4158475,0.091337 0.6018845,0.7783502 0.1860371,0.6870129 0.067849,1.3382855 -0.056905,1.6043542 C 2.891406,4.0424111 2.779784,4.2290562 2.4974453,4.3680473 H 1.4096756 L 1.6788822,3.5301298 H 2.1538239 L 1.6416748,2.2633251 H 1.1732992 Z"
       id="path180"
       sodipodi:nodetypes="ccssccccccc" />
    <path
       style="fill:#1b924a;fill-opacity:1;stroke:none;stroke-width:0.0111395;stroke-opacity:1"
       d="M 0.77094063,6.5243736 H 1.3891232 V 4.3790279 Z"
       id="path181" />
    <path
       id="path172"
       d="M 2494,6332 V 5956 L 1298,6640 Z"
       style="fill:#ff0000;fill-opacity:1;fill-rule:nonzero;stroke:#ff0000;stroke-width:1;stroke-linecap:round;stroke-linejoin:miter;stroke-miterlimit:10;stroke-dasharray:none;stroke-opacity:1"
       transform="matrix(0,-0.00205579,-0.00128346,0,8.8407745,9.5098034)"
       clip-path="url(#clipPath173)" />
    <path
       id="path174"
       d="m 2829,5764 v 844 l -335,-652 z m 0,844 -335,-652 v 858 z"
       style="fill:#ff0000;fill-opacity:1;fill-rule:nonzero;stroke:#ff0000;stroke-width:1;stroke-linecap:round;stroke-linejoin:miter;stroke-miterlimit:10;stroke-dasharray:none;stroke-opacity:1"
       transform="matrix(0,-0.00247641,-0.00128277,0,8.836391,10.558827)"
       clip-path="url(#clipPath175)" />
    <g
       id="g163"
       clip-path="url(#clipPath171)"
       transform="matrix(0.0063229,0,0,0.01150783,-0.07345066,-0.33950284)">
      <path
         id="path169"
         d="m 2829,6246 1188,-365 z m 1188,-365 -1188,365 v 362 z"
         style="fill:#ff0000;fill-opacity:1;fill-rule:nonzero;stroke:#ff0000;stroke-width:1;stroke-linecap:round;stroke-linejoin:miter;stroke-miterlimit:10;stroke-dasharray:none;stroke-opacity:1"
         transform="matrix(0,-0.16,-0.16,0,1122.6667,793.33333)"
         clip-path="url(#clipPath170)" />
    </g>
  </g>
</svg>
