<?xml version="1.0" encoding="utf-8"?>
<!-- Generator: Adobe Illustrator 24.3.0, SVG Export Plug-In . SVG Version: 6.00 Build 0)  -->
<svg version="1.1"
	 id="svg1" xmlns:inkscape="http://www.inkscape.org/namespaces/inkscape" xmlns:sodipodi="http://sodipodi.sourceforge.net/DTD/sodipodi-0.dtd" xmlns:svg="http://www.w3.org/2000/svg"
	 xmlns="http://www.w3.org/2000/svg" xmlns:xlink="http://www.w3.org/1999/xlink" x="0px" y="0px" viewBox="0 0 430.4 193"
	 style="enable-background:new 0 0 430.4 193;" xml:space="preserve">
<style type="text/css">
	.st0{fill-rule:evenodd;clip-rule:evenodd;fill:#19B24B;}
	.st1{fill-rule:evenodd;clip-rule:evenodd;fill:#FF0000;}
	.st2{fill:#212830;}
	.st3{font-family:'Verdana';}
	.st4{font-size:24.8906px;}
</style>
<polygon class="st0" points="22.5,21.5 38.5,21.5 22.5,44.1 "/>
<path class="st0" d="M54.9,44.1l5.9-22.6h55.4c0,0,16.4,1.3,26.9,16.2s7.4,31.4,5,36.7c-2.4,5.4-9.2,21.3-30.4,25.5l22.6,34.4h131.5
	l-11.2,22.5H128.1L90.3,100l-24.6,0l0,56.9H34.2L78,78l35.2-0.1c0,0,11.7-0.7,14.6-13.8c0,0,2.8-18-16.5-19.9L54.9,44.1z"/>
<polygon class="st1" points="171.6,100.5 182.8,78 271.7,78 260.5,100.5 "/>
<polygon class="st1" points="182.8,44.1 194,21.6 430.4,21.6 419.2,44.1 344.2,44.4 344.2,156.9 321.8,156.9 321.8,44.1 "/>
<polygon class="st1" points="11.4,178.7 68.6,78 37.1,78 60.9,0 0,100.1 31.5,100.1 "/>
<text transform="matrix(1 0 0 1 34.2004 185.4571)" class="st2 st3 st4">Trusted Engineering Solutions.</text>
</svg>
