<?xml version="1.0" encoding="UTF-8" standalone="no"?>
<!-- Created with Inkscape (http://www.inkscape.org/) -->

<svg
   version="1.1"
   id="svg1"
   width="1050"
   height="500"
   viewBox="0 0 1050 500"
   sodipodi:docname="logo.svg"
   inkscape:version="1.4.2 (f4327f4, 2025-05-13)"
   xmlns:inkscape="http://www.inkscape.org/namespaces/inkscape"
   xmlns:sodipodi="http://sodipodi.sourceforge.net/DTD/sodipodi-0.dtd"
   xmlns="http://www.w3.org/2000/svg"
   xmlns:svg="http://www.w3.org/2000/svg">
  <defs
     id="defs1">
    <clipPath
       clipPathUnits="userSpaceOnUse"
       id="clipPath2">
      <path
         d="M 763,0 H 4196 V 7015 H 763 V 0"
         transform="translate(-2.0833333e-5,2.0833333e-4)"
         id="path2" />
    </clipPath>
    <clipPath
       clipPathUnits="userSpaceOnUse"
       id="clipPath5">
      <path
         d="M 763,0 H 4196 V 7015 H 763 V 0"
         transform="translate(-2.0833333e-5,2.0833333e-4)"
         id="path5" />
    </clipPath>
    <clipPath
       clipPathUnits="userSpaceOnUse"
       id="clipPath7">
      <path
         d="M 763,0 H 4196 V 7015 H 763 V 0"
         transform="translate(-2.0833333e-5,2.0833333e-4)"
         id="path7" />
    </clipPath>
    <clipPath
       clipPathUnits="userSpaceOnUse"
       id="clipPath9">
      <path
         d="M 763,0 H 4196 V 7015 H 763 V 0"
         transform="translate(-2.0833333e-5,2.0833333e-4)"
         id="path9" />
    </clipPath>
    <clipPath
       clipPathUnits="userSpaceOnUse"
       id="clipPath11">
      <path
         d="M 763,0 H 4196 V 7015 H 763 V 0"
         transform="translate(-2.0833333e-5,2.0833333e-4)"
         id="path11" />
    </clipPath>
    <clipPath
       clipPathUnits="userSpaceOnUse"
       id="clipPath13">
      <path
         d="M 763,0 H 4196 V 7015 H 763 V 0"
         transform="translate(-2.0833333e-5,2.0833333e-4)"
         id="path13" />
    </clipPath>
    <clipPath
       clipPathUnits="userSpaceOnUse"
       id="clipPath15">
      <path
         d="M 763,0 H 4196 V 7015 H 763 V 0"
         transform="translate(-2.0833333e-5,2.0833333e-4)"
         id="path15" />
    </clipPath>
    <clipPath
       clipPathUnits="userSpaceOnUse"
       id="clipPath17">
      <path
         d="M 763,0 H 4196 V 7015 H 763 V 0"
         transform="translate(-2.0833333e-5,2.0833333e-4)"
         id="path17" />
    </clipPath>
    <clipPath
       clipPathUnits="userSpaceOnUse"
       id="clipPath19">
      <path
         d="M 763,0 H 4196 V 7015 H 763 V 0"
         transform="translate(-2.0833333e-5,2.0833333e-4)"
         id="path19" />
    </clipPath>
    <clipPath
       clipPathUnits="userSpaceOnUse"
       id="clipPath21">
      <path
         d="M 763,0 H 4196 V 7015 H 763 V 0"
         transform="translate(-2.0833333e-5,2.0833333e-4)"
         id="path21" />
    </clipPath>
    <clipPath
       clipPathUnits="userSpaceOnUse"
       id="clipPath23">
      <path
         d="M 763,0 H 4196 V 7015 H 763 V 0"
         transform="translate(-2.0833333e-5,2.0833333e-4)"
         id="path23" />
    </clipPath>
    <clipPath
       clipPathUnits="userSpaceOnUse"
       id="clipPath25">
      <path
         d="M 763,0 H 4196 V 7015 H 763 V 0"
         transform="translate(-2.0833333e-5,2.0833333e-4)"
         id="path25" />
    </clipPath>
    <clipPath
       clipPathUnits="userSpaceOnUse"
       id="clipPath27">
      <path
         d="M 763,0 H 4196 V 7015 H 763 V 0"
         transform="translate(-2.0833333e-5,2.0833333e-4)"
         id="path27" />
    </clipPath>
    <clipPath
       clipPathUnits="userSpaceOnUse"
       id="clipPath29">
      <path
         d="M 763,0 H 4196 V 7015 H 763 V 0"
         transform="translate(-2.0833333e-5,2.0833333e-4)"
         id="path29" />
    </clipPath>
    <clipPath
       clipPathUnits="userSpaceOnUse"
       id="clipPath31">
      <path
         d="M 763,0 H 4196 V 7015 H 763 V 0"
         transform="translate(-2.0833333e-5,2.0833333e-4)"
         id="path31" />
    </clipPath>
    <clipPath
       clipPathUnits="userSpaceOnUse"
       id="clipPath33">
      <path
         d="M 763,0 H 4196 V 7015 H 763 V 0"
         transform="translate(-2.0833333e-5,2.0833333e-4)"
         id="path33" />
    </clipPath>
    <clipPath
       clipPathUnits="userSpaceOnUse"
       id="clipPath35">
      <path
         d="M 763,0 H 4196 V 7015 H 763 V 0"
         transform="translate(-2.0833333e-5,2.0833333e-4)"
         id="path35" />
    </clipPath>
    <clipPath
       clipPathUnits="userSpaceOnUse"
       id="clipPath37">
      <path
         d="M 763,0 H 4196 V 7015 H 763 V 0"
         transform="translate(-2.0833333e-5,2.0833333e-4)"
         id="path37" />
    </clipPath>
    <clipPath
       clipPathUnits="userSpaceOnUse"
       id="clipPath39">
      <path
         d="M 763,0 H 4196 V 7015 H 763 V 0"
         transform="translate(-2.0833333e-5,2.0833333e-4)"
         id="path39" />
    </clipPath>
    <clipPath
       clipPathUnits="userSpaceOnUse"
       id="clipPath41">
      <path
         d="M 763,0 H 4196 V 7015 H 763 V 0"
         transform="translate(-2.0833333e-5,2.0833333e-4)"
         id="path41" />
    </clipPath>
    <clipPath
       clipPathUnits="userSpaceOnUse"
       id="clipPath43">
      <path
         d="M 763,0 H 4196 V 7015 H 763 V 0"
         transform="translate(-2.0833333e-5,2.0833333e-4)"
         id="path43" />
    </clipPath>
    <clipPath
       clipPathUnits="userSpaceOnUse"
       id="clipPath45">
      <path
         d="M 763,0 H 4196 V 7015 H 763 V 0"
         transform="translate(-2.0833333e-5,2.0833333e-4)"
         id="path45" />
    </clipPath>
    <clipPath
       clipPathUnits="userSpaceOnUse"
       id="clipPath47">
      <path
         d="M 763,0 H 4196 V 7015 H 763 V 0"
         transform="translate(-2.0833333e-5,2.0833333e-4)"
         id="path47" />
    </clipPath>
    <clipPath
       clipPathUnits="userSpaceOnUse"
       id="clipPath49">
      <path
         d="M 763,0 H 4196 V 7015 H 763 V 0"
         transform="translate(-2.0833333e-5,2.0833333e-4)"
         id="path49" />
    </clipPath>
    <clipPath
       clipPathUnits="userSpaceOnUse"
       id="clipPath51">
      <path
         d="M 763,0 H 4196 V 7015 H 763 V 0"
         transform="translate(-2.0833333e-5,2.0833333e-4)"
         id="path51" />
    </clipPath>
    <clipPath
       clipPathUnits="userSpaceOnUse"
       id="clipPath53">
      <path
         d="M 763,0 H 4196 V 7015 H 763 V 0"
         transform="translate(-2.0833333e-5,2.0833333e-4)"
         id="path53" />
    </clipPath>
    <clipPath
       clipPathUnits="userSpaceOnUse"
       id="clipPath55">
      <path
         d="M 763,0 H 4196 V 7015 H 763 V 0"
         transform="translate(-2.0833333e-5,2.0833333e-4)"
         id="path55" />
    </clipPath>
    <clipPath
       clipPathUnits="userSpaceOnUse"
       id="clipPath57">
      <path
         d="M 763,0 H 4196 V 7015 H 763 V 0"
         transform="translate(-2.0833333e-5,2.0833333e-4)"
         id="path57" />
    </clipPath>
    <clipPath
       clipPathUnits="userSpaceOnUse"
       id="clipPath59">
      <path
         d="M 763,0 H 4196 V 7015 H 763 V 0"
         transform="translate(-2.0833333e-5,2.0833333e-4)"
         id="path59" />
    </clipPath>
    <clipPath
       clipPathUnits="userSpaceOnUse"
       id="clipPath61">
      <path
         d="M 763,0 H 4196 V 7015 H 763 V 0"
         transform="translate(-2.0833333e-5,2.0833333e-4)"
         id="path61" />
    </clipPath>
    <clipPath
       clipPathUnits="userSpaceOnUse"
       id="clipPath63">
      <path
         d="M 763,0 H 4196 V 7015 H 763 V 0"
         transform="translate(-2.0833333e-5,2.0833333e-4)"
         id="path63" />
    </clipPath>
    <clipPath
       clipPathUnits="userSpaceOnUse"
       id="clipPath65">
      <path
         d="M 763,0 H 4196 V 7015 H 763 V 0"
         transform="translate(-2.0833333e-5,2.0833333e-4)"
         id="path65" />
    </clipPath>
    <clipPath
       clipPathUnits="userSpaceOnUse"
       id="clipPath67">
      <path
         d="M 763,0 H 4196 V 7015 H 763 V 0"
         transform="translate(-2.0833333e-5,2.0833333e-4)"
         id="path67" />
    </clipPath>
    <clipPath
       clipPathUnits="userSpaceOnUse"
       id="clipPath69">
      <path
         d="M 763,0 H 4196 V 7015 H 763 V 0"
         transform="translate(-2.0833333e-5,2.0833333e-4)"
         id="path69" />
    </clipPath>
    <clipPath
       clipPathUnits="userSpaceOnUse"
       id="clipPath71">
      <path
         d="M 763,0 H 4196 V 7015 H 763 V 0"
         transform="translate(-2.0833333e-5,2.0833333e-4)"
         id="path71" />
    </clipPath>
    <clipPath
       clipPathUnits="userSpaceOnUse"
       id="clipPath73">
      <path
         d="M 763,0 H 4196 V 7015 H 763 V 0"
         transform="translate(-2.0833333e-5,2.0833333e-4)"
         id="path73" />
    </clipPath>
    <clipPath
       clipPathUnits="userSpaceOnUse"
       id="clipPath75">
      <path
         d="M 763,0 H 4196 V 7015 H 763 V 0"
         transform="translate(-2.0833333e-5,2.0833333e-4)"
         id="path75" />
    </clipPath>
    <clipPath
       clipPathUnits="userSpaceOnUse"
       id="clipPath77">
      <path
         d="M 763,0 H 4196 V 7015 H 763 V 0"
         transform="translate(-2.0833333e-5,2.0833333e-4)"
         id="path77" />
    </clipPath>
    <clipPath
       clipPathUnits="userSpaceOnUse"
       id="clipPath79">
      <path
         d="M 763,0 H 4196 V 7015 H 763 V 0"
         transform="translate(-2.0833333e-5,2.0833333e-4)"
         id="path79" />
    </clipPath>
    <clipPath
       clipPathUnits="userSpaceOnUse"
       id="clipPath81">
      <path
         d="M 763,0 H 4196 V 7015 H 763 V 0"
         transform="translate(-2.0833333e-5,2.0833333e-4)"
         id="path81" />
    </clipPath>
    <clipPath
       clipPathUnits="userSpaceOnUse"
       id="clipPath83">
      <path
         d="M 763,0 H 4196 V 7015 H 763 V 0"
         transform="translate(-2.0833333e-5,2.0833333e-4)"
         id="path83" />
    </clipPath>
    <clipPath
       clipPathUnits="userSpaceOnUse"
       id="clipPath85">
      <path
         d="M 763,0 H 4196 V 7015 H 763 V 0"
         transform="translate(-2.0833333e-5,2.0833333e-4)"
         id="path85" />
    </clipPath>
    <clipPath
       clipPathUnits="userSpaceOnUse"
       id="clipPath87">
      <path
         d="M 763,0 H 4196 V 7015 H 763 V 0"
         transform="translate(-2.0833333e-5,2.0833333e-4)"
         id="path87" />
    </clipPath>
    <clipPath
       clipPathUnits="userSpaceOnUse"
       id="clipPath89">
      <path
         d="M 763,0 H 4196 V 7015 H 763 V 0"
         transform="translate(-2.0833333e-5,2.0833333e-4)"
         id="path89" />
    </clipPath>
    <clipPath
       clipPathUnits="userSpaceOnUse"
       id="clipPath91">
      <path
         d="M 763,0 H 4196 V 7015 H 763 V 0"
         transform="translate(-2.0833333e-5,2.0833333e-4)"
         id="path91" />
    </clipPath>
    <clipPath
       clipPathUnits="userSpaceOnUse"
       id="clipPath93">
      <path
         d="M 763,0 H 4196 V 7015 H 763 V 0"
         transform="translate(-2.0833333e-5,2.0833333e-4)"
         id="path93" />
    </clipPath>
    <clipPath
       clipPathUnits="userSpaceOnUse"
       id="clipPath95">
      <path
         d="M 763,0 H 4196 V 7015 H 763 V 0"
         transform="translate(-2.0833333e-5,2.0833333e-4)"
         id="path95" />
    </clipPath>
    <clipPath
       clipPathUnits="userSpaceOnUse"
       id="clipPath97">
      <path
         d="M 763,0 H 4196 V 7015 H 763 V 0"
         transform="translate(-2.0833333e-5,2.0833333e-4)"
         id="path97" />
    </clipPath>
    <clipPath
       clipPathUnits="userSpaceOnUse"
       id="clipPath99">
      <path
         d="M 763,0 H 4196 V 7015 H 763 V 0"
         transform="translate(-2.0833333e-5,2.0833333e-4)"
         id="path99" />
    </clipPath>
    <clipPath
       clipPathUnits="userSpaceOnUse"
       id="clipPath101">
      <path
         d="M 763,0 H 4196 V 7015 H 763 V 0"
         transform="translate(-2.0833333e-5,2.0833333e-4)"
         id="path101" />
    </clipPath>
    <clipPath
       clipPathUnits="userSpaceOnUse"
       id="clipPath103">
      <path
         d="M 763,0 H 4196 V 7015 H 763 V 0"
         transform="translate(-2.0833333e-5,2.0833333e-4)"
         id="path103" />
    </clipPath>
    <clipPath
       clipPathUnits="userSpaceOnUse"
       id="clipPath105">
      <path
         d="M 763,0 H 4196 V 7015 H 763 V 0"
         transform="translate(-2.0833333e-5,2.0833333e-4)"
         id="path105" />
    </clipPath>
    <clipPath
       clipPathUnits="userSpaceOnUse"
       id="clipPath107">
      <path
         d="M 763,0 H 4196 V 7015 H 763 V 0"
         transform="translate(-2.0833333e-5,2.0833333e-4)"
         id="path107" />
    </clipPath>
    <clipPath
       clipPathUnits="userSpaceOnUse"
       id="clipPath109">
      <path
         d="M 763,0 H 4196 V 7015 H 763 V 0"
         transform="translate(-2.0833333e-5,2.0833333e-4)"
         id="path109" />
    </clipPath>
    <clipPath
       clipPathUnits="userSpaceOnUse"
       id="clipPath111">
      <path
         d="M 763,0 H 4196 V 7015 H 763 V 0"
         transform="translate(-2.0833333e-5,2.0833333e-4)"
         id="path111" />
    </clipPath>
    <clipPath
       clipPathUnits="userSpaceOnUse"
       id="clipPath113">
      <path
         d="M 763,0 H 4196 V 7015 H 763 V 0"
         transform="translate(-2.0833333e-5,2.0833333e-4)"
         id="path113" />
    </clipPath>
    <clipPath
       clipPathUnits="userSpaceOnUse"
       id="clipPath115">
      <path
         d="M 763,0 H 4196 V 7015 H 763 V 0"
         transform="translate(-2.0833333e-5,2.0833333e-4)"
         id="path115" />
    </clipPath>
    <clipPath
       clipPathUnits="userSpaceOnUse"
       id="clipPath117">
      <path
         d="M 763,0 H 4196 V 7015 H 763 V 0"
         transform="translate(-2.0833333e-5,2.0833333e-4)"
         id="path117" />
    </clipPath>
    <clipPath
       clipPathUnits="userSpaceOnUse"
       id="clipPath119">
      <path
         d="M 763,0 H 4196 V 7015 H 763 V 0"
         transform="translate(-2.0833333e-5,2.0833333e-4)"
         id="path119" />
    </clipPath>
    <clipPath
       clipPathUnits="userSpaceOnUse"
       id="clipPath121">
      <path
         d="M 763,0 H 4196 V 7015 H 763 V 0"
         transform="translate(-2.0833333e-5,2.0833333e-4)"
         id="path121" />
    </clipPath>
    <clipPath
       clipPathUnits="userSpaceOnUse"
       id="clipPath123">
      <path
         d="M 763,0 H 4196 V 7015 H 763 V 0"
         transform="translate(-2.0833333e-5,2.0833333e-4)"
         id="path123" />
    </clipPath>
    <clipPath
       clipPathUnits="userSpaceOnUse"
       id="clipPath125">
      <path
         d="M 763,0 H 4196 V 7015 H 763 V 0"
         transform="translate(-2.0833333e-5,2.0833333e-4)"
         id="path125" />
    </clipPath>
    <clipPath
       clipPathUnits="userSpaceOnUse"
       id="clipPath127">
      <path
         d="M 763,0 H 4196 V 7015 H 763 V 0"
         transform="translate(-2.0833333e-5,2.0833333e-4)"
         id="path127" />
    </clipPath>
    <clipPath
       clipPathUnits="userSpaceOnUse"
       id="clipPath129">
      <path
         d="M 763,0 H 4196 V 7015 H 763 V 0"
         transform="translate(-2.0833333e-5,2.0833333e-4)"
         id="path129" />
    </clipPath>
    <clipPath
       clipPathUnits="userSpaceOnUse"
       id="clipPath131">
      <path
         d="M 763,0 H 4196 V 7015 H 763 V 0"
         transform="translate(-2.0833333e-5,2.0833333e-4)"
         id="path131" />
    </clipPath>
    <clipPath
       clipPathUnits="userSpaceOnUse"
       id="clipPath133">
      <path
         d="M 763,0 H 4196 V 7015 H 763 V 0"
         transform="translate(-2.0833333e-5,2.0833333e-4)"
         id="path133" />
    </clipPath>
    <clipPath
       clipPathUnits="userSpaceOnUse"
       id="clipPath135">
      <path
         d="M 763,0 H 4196 V 7015 H 763 V 0"
         transform="translate(-2.0833333e-5,2.0833333e-4)"
         id="path135" />
    </clipPath>
    <clipPath
       clipPathUnits="userSpaceOnUse"
       id="clipPath145">
      <path
         d="M 763,0 H 4196 V 7015 H 763 V 0"
         transform="translate(-2.0833333e-5,2.0833333e-4)"
         id="path145" />
    </clipPath>
    <clipPath
       clipPathUnits="userSpaceOnUse"
       id="clipPath147">
      <path
         d="M 763,0 H 4196 V 7015 H 763 V 0"
         transform="translate(-2.0833333e-5,2.0833333e-4)"
         id="path147" />
    </clipPath>
    <clipPath
       clipPathUnits="userSpaceOnUse"
       id="clipPath149">
      <path
         d="M 763,0 H 4196 V 7015 H 763 V 0"
         transform="translate(-2.0833333e-5,2.0833333e-4)"
         id="path149" />
    </clipPath>
    <clipPath
       clipPathUnits="userSpaceOnUse"
       id="clipPath170">
      <path
         d="M 763,0 H 4196 V 7015 H 763 V 0"
         transform="translate(-2.0833333e-5,2.0833333e-4)"
         id="path170" />
    </clipPath>
    <clipPath
       clipPathUnits="userSpaceOnUse"
       id="clipPath171">
      <path
         d="M 763,0 H 4196 V 7015 H 763 V 0"
         transform="matrix(0,-0.16,-0.16,0,1122.6667,793.33333)"
         id="path171" />
    </clipPath>
    <clipPath
       clipPathUnits="userSpaceOnUse"
       id="clipPath173">
      <path
         d="M 763,0 H 4196 V 7015 H 763 V 0"
         transform="translate(-2.0833333e-5,2.0833333e-4)"
         id="path173" />
    </clipPath>
    <clipPath
       clipPathUnits="userSpaceOnUse"
       id="clipPath175">
      <path
         d="M 763,0 H 4196 V 7015 H 763 V 0"
         transform="translate(-2.0833333e-5,2.0833333e-4)"
         id="path175" />
    </clipPath>
    <clipPath
       clipPathUnits="userSpaceOnUse"
       id="clipPath177">
      <path
         d="M 763,0 H 4196 V 7015 H 763 V 0"
         transform="translate(-2.0833333e-5,2.0833333e-4)"
         id="path177" />
    </clipPath>
    <clipPath
       clipPathUnits="userSpaceOnUse"
       id="clipPath147-4">
      <path
         d="M 763,0 H 4196 V 7015 H 763 V 0"
         transform="translate(-2.0833333e-5,2.0833333e-4)"
         id="path147-8" />
    </clipPath>
    <clipPath
       clipPathUnits="userSpaceOnUse"
       id="clipPath147-1">
      <path
         d="M 763,0 H 4196 V 7015 H 763 V 0"
         transform="translate(-2.0833333e-5,2.0833333e-4)"
         id="path147-7" />
    </clipPath>
    <clipPath
       clipPathUnits="userSpaceOnUse"
       id="clipPath147-6">
      <path
         d="M 763,0 H 4196 V 7015 H 763 V 0"
         transform="translate(-2.0833333e-5,2.0833333e-4)"
         id="path147-1" />
    </clipPath>
  </defs>
  <sodipodi:namedview
     id="namedview1"
     pagecolor="#ffffff"
     bordercolor="#000000"
     borderopacity="0.25"
     inkscape:showpageshadow="2"
     inkscape:pageopacity="0.0"
     inkscape:pagecheckerboard="0"
     inkscape:deskcolor="#d1d1d1"
     showgrid="false"
     inkscape:zoom="0.68898347"
     inkscape:cx="745.3009"
     inkscape:cy="80.553457"
     inkscape:window-width="1920"
     inkscape:window-height="991"
     inkscape:window-x="-9"
     inkscape:window-y="-9"
     inkscape:window-maximized="1"
     inkscape:current-layer="layer-oc1">
    <inkscape:page
       x="0"
       y="0"
       inkscape:label="[1] Model"
       id="page1"
       width="1050"
       height="500"
       margin="0"
       bleed="0" />
  </sodipodi:namedview>
  <g
     id="layer-oc8"
     inkscape:groupmode="layer"
     inkscape:label="bush">
    <path
       id="path1"
       d="m 3688,6467 v -245 l -344,245 z"
       style="fill:#1b924a;fill-opacity:1;fill-rule:nonzero;stroke:#136734;stroke-width:1;stroke-linecap:butt;stroke-linejoin:miter;stroke-miterlimit:10;stroke-dasharray:none;stroke-opacity:1"
       transform="matrix(0,-0.16,-0.16,0,1096.6667,647.33333)"
       clip-path="url(#clipPath2)"
       inkscape:export-filename="path1.png"
       inkscape:export-xdpi="14.109262"
       inkscape:export-ydpi="14.109262" />
    <path
       id="path3"
       d="m 61.9467,57.25333 h 39.2"
       style="fill:none;stroke:#136734;stroke-width:0.16;stroke-linecap:round;stroke-linejoin:round;stroke-miterlimit:10;stroke-dasharray:none;stroke-opacity:1" />
    <path
       id="path126"
       d="m 2494,5805 h -523 v 292 z"
       style="fill:#136734;fill-opacity:1;fill-rule:nonzero;stroke:#136734;stroke-width:1;stroke-linecap:round;stroke-linejoin:miter;stroke-miterlimit:10;stroke-dasharray:none;stroke-opacity:1"
       transform="matrix(0,-0.16,-0.16,0,1096.6667,647.33333)"
       clip-path="url(#clipPath127)" />
    <path
       id="path134"
       d="m 1971,5805 v 292 l -344,-292 z m 0,292 -344,-292 v 483 z"
       style="fill:#136734;fill-opacity:1;fill-rule:nonzero;stroke:#136734;stroke-width:1;stroke-linecap:round;stroke-linejoin:miter;stroke-miterlimit:10;stroke-dasharray:none;stroke-opacity:1"
       transform="matrix(0,-0.16,-0.16,0,1096.6667,647.33333)"
       clip-path="url(#clipPath135)" />
    <path
       id="path143"
       d="m 61.9467,57.25333 v 55.04"
       style="fill:none;stroke:#136734;stroke-width:0.16;stroke-linecap:round;stroke-linejoin:round;stroke-miterlimit:10;stroke-dasharray:none;stroke-opacity:1" />
    <path
       id="path144"
       d="M 3688,222 V 4013 L 3344,394 Z m 0,3791 -344,-3619 v 3790 z"
       style="fill:#ff0000;fill-opacity:1;fill-rule:nonzero;stroke:#ff0000;stroke-width:1;stroke-linecap:round;stroke-linejoin:miter;stroke-miterlimit:10;stroke-dasharray:none;stroke-opacity:1"
       transform="matrix(0,-0.18531414,-0.14497575,0,1071.8055,740.69209)"
       clip-path="url(#clipPath145)" />
    <path
       id="path146"
       d="M 2829,2651 V 4013 L 2486,2823 Z m 0,1362 -343,-1190 v 1361 z"
       style="fill:#ff0000;fill-opacity:1;fill-rule:nonzero;stroke:#ff0000;stroke-width:1;stroke-linecap:round;stroke-linejoin:miter;stroke-miterlimit:10;stroke-dasharray:none;stroke-opacity:1"
       transform="matrix(0,-0.19380653,-0.15998543,0,1088.6169,737.17418)"
       clip-path="url(#clipPath147)" />
    <path
       id="path148"
       d="m 3344,1542 v 343 L 1627,1542 Z m 0,343 -1717,-343 v 343 z"
       style="fill:#ff0000;fill-opacity:1;fill-rule:nonzero;stroke:#ff0000;stroke-width:1;stroke-linecap:round;stroke-linejoin:miter;stroke-miterlimit:10;stroke-dasharray:none;stroke-opacity:1"
       transform="matrix(0,-0.15998482,-0.21068534,0,1093.516,647.29561)"
       clip-path="url(#clipPath149)" />
    <path
       id="path157"
       d="m 454.5867,194.69333 -27.36,54.88"
       style="fill:none;stroke:#ff0000;stroke-width:0.16;stroke-linecap:round;stroke-linejoin:round;stroke-miterlimit:10;stroke-dasharray:none;stroke-opacity:1" />
    <path
       style="fill:#1b924a;fill-opacity:1;stroke:none;stroke-width:1.06179;stroke-opacity:1"
       d="m 212.75972,246.20359 95.47363,143.30778 296.33349,0.37153 28.75766,-62.71282 -270.14164,-1.10158 -59.09749,-81.15087 z"
       id="path179"
       sodipodi:nodetypes="ccccccc" />
    <path
       style="fill:#1b924a;fill-opacity:1;stroke:none;stroke-opacity:1"
       d="m 154.95553,55.173855 h 138.03794 c 0,0 48.74946,5.90125 70.55843,50.288915 21.80897,44.38766 7.95386,86.46614 -6.67098,103.65674 -14.62483,17.1906 -27.71021,29.24968 -60.80853,38.22984 l -127.51832,0 31.55885,-54.13755 h 55.67702 l -60.03881,-81.84778 h -54.90729 z"
       id="path180"
       sodipodi:nodetypes="ccssccccccc" />
    <path
       style="fill:#1b924a;fill-opacity:1;stroke:none;stroke-opacity:1"
       d="m 90.65737,386.6688 h 77.10635 v -138.61 z"
       id="path181" />
  </g>
  <g
     id="layer-oc1"
     inkscape:groupmode="layer"
     inkscape:label="0">
    <g
       id="g163"
       clip-path="url(#clipPath171)"
       transform="translate(-26.004306,-146.00001)">
      <path
         id="path169"
         d="m 2829,6246 1188,-365 z m 1188,-365 -1188,365 v 362 z"
         style="fill:#ff0000;fill-opacity:1;fill-rule:nonzero;stroke:#ff0000;stroke-width:1;stroke-linecap:round;stroke-linejoin:miter;stroke-miterlimit:10;stroke-dasharray:none;stroke-opacity:1"
         transform="matrix(0,-0.16,-0.16,0,1122.6667,793.33333)"
         clip-path="url(#clipPath170)" />
    </g>
    <path
       id="path172"
       d="M 2494,6332 V 5956 L 1298,6640 Z"
       style="fill:#ff0000;fill-opacity:1;fill-rule:nonzero;stroke:#ff0000;stroke-width:1;stroke-linecap:round;stroke-linejoin:miter;stroke-miterlimit:10;stroke-dasharray:none;stroke-opacity:1"
       transform="matrix(0,-0.16,-0.16,0,1096.6667,647.33333)"
       clip-path="url(#clipPath173)" />
    <path
       id="path174"
       d="m 2829,5764 v 844 l -335,-652 z m 0,844 -335,-652 v 858 z"
       style="fill:#ff0000;fill-opacity:1;fill-rule:nonzero;stroke:#ff0000;stroke-width:1;stroke-linecap:round;stroke-linejoin:miter;stroke-miterlimit:10;stroke-dasharray:none;stroke-opacity:1"
       transform="matrix(0,-0.16,-0.16,0,1096.6667,647.33333)"
       clip-path="url(#clipPath175)" />
    <text
       xml:space="preserve"
       style="font-style:normal;font-variant:normal;font-weight:normal;font-stretch:normal;font-size:74.6667px;line-height:0px;font-family:'Times New Roman';-inkscape-font-specification:'Times New Roman, ';text-align:start;letter-spacing:1.02px;writing-mode:lr-tb;direction:ltr;text-anchor:start;fill:#000000;fill-opacity:1"
       x="82.570686"
       y="469.00095"
       id="text2"><tspan
         sodipodi:role="line"
         id="tspan2"
         x="82.570686"
         y="469.00095"
         style="font-size:74.6667px;letter-spacing:1.02px"><tspan
   style="font-style:normal;font-variant:normal;font-weight:normal;font-stretch:normal;font-size:74.6667px;font-family:Calibri;-inkscape-font-specification:Calibri;letter-spacing:1.02px"
   id="tspan3">Trusted Engineering Solutions</tspan>.</tspan></text>
  </g>
</svg>
